<svg width="85" height="85" viewBox="-20 -20 200 200" fill="none" xmlns="http://www.w3.org/2000/svg">
<g id="lichen-element-1">
<rect width="85" height="85" fill="white"/>
<path id="main-shape" d="M30 0H10L0 10V30L10 40H30L40 30V10L30 0Z" fill="black"/>
<path id="child-shape" d="M45 30H35L30 35V45L35 50H45L50 45V35L45 30Z" fill="#FF0000"/>
<g id="connectors">
<g id="lichen-element-1_2">
<rect id="0.75_0.75" x="5" y="5" width="10" height="10" fill="#00FF00" fill-opacity="0.6"/>
<!-- bottom left -->
<rect id="0.75_0.25" x="5" y="35" width="10" height="10" fill="#00FF00" fill-opacity="0.6"/>
<!-- <rect id="0.25_0.25" x="0" y="40" width="5" height="5" fill="#ff00FF" fill-opacity="0.6"/> -->
<!-- <rect id="0.25_0.25" x="-5" y="45" width="5" height="5" fill="#ff00FF" fill-opacity="0.6"/> -->

<!-- bottom right -->
<rect id="0.25_0.25" x="35" y="35" width="10" height="10" fill="#00FF00" fill-opacity="0.6"/>
<rect id="0.25_0.25" x="45" y="45" width="10" height="10" fill="#ff00FF" fill-opacity="0.6"/>
<rect id="0.25_0.25" x="55" y="50" width="10" height="10" fill="#ff00FF" fill-opacity="0.6"/>
<rect id="0.25_0.25" x="60" y="65" width="5" height="5" fill="#ff00FF" fill-opacity="0.6"/>
<rect id="0.25_0.25" x="65" y="60" width="5" height="5" fill="#ff00FF" fill-opacity="0.6"/>
<rect id="0.25_0.25" x="70" y="65" width="5" height="5" fill="#ff00FF" fill-opacity="0.6"/>
<rect id="0.25_0.25" x="75" y="70" width="15" height="15" fill="#0000ff" fill-opacity="0.6"/>

<rect id="0.25_0.25" x="70" y="85" width="5" height="5" fill="#ff00FF" fill-opacity="0.6"/>
<rect id="0.25_0.25" x="65" y="90" width="5" height="5" fill="#ff00FF" fill-opacity="0.6"/>
<rect id="0.25_0.25" x="60" y="95" width="5" height="5" fill="#ff00FF" fill-opacity="0.6"/>

<!-- top right -->
<rect id="0.25_0.75" x="35" y="5" width="10" height="10" fill="#00FF00" fill-opacity="0.6"/>
<rect id="0.25_0.75" x="40" y="0" width="5" height="5" fill="#ff00ff" fill-opacity="0.6"/>
<rect id="0.25_0.75" x="45" y="-5" width="10" height="10" fill="#ff00ff" fill-opacity="0.6"/>
<rect id="0.25_0.75" x="50" y="-10" width="5" height="5" fill="#ff00ff" fill-opacity="0.6"/>
<rect id="0.25_0.25" x="45" y="-5" width="10" height="10" fill="#0000FF" fill-opacity="0.6"/>
<rect id="0.25_0.25" x="25" y="55" width="5" height="5" fill="#ff00FF" fill-opacity="0.6"/>


<!-- top left -->
<rect id="0.25_0.25" x="0" y="0" width="5" height="5" fill="#ff00FF" fill-opacity="0.6"/>
<rect id="0.25_0.25" x="15" y="45" width="10" height="10" fill="#ff00FF" fill-opacity="0.6"/>
<rect id="0.25_0.25" x="25" y="55" width="5" height="5" fill="#ff00FF" fill-opacity="0.6"/>

</g>
<rect id="origin" x="0.500031" y="0.5" width="4.0505" height="4" fill="#DADADA" fill-opacity="0.6" stroke="#FF0000"/>
</g>
</g>
</svg>
